Coordinates
version=1
nRows=17
nColumns=36
inDegrees=yes

Units are S.I. units (second, meters, Newtons, ...)
If the header above contains a line with 'inDegrees', this indicates whether rotational values are in degrees (yes) or radians (no).

endheader
time	pelvis_tilt	pelvis_list	pelvis_rotation	pelvis_tx	pelvis_ty	pelvis_tz	hip_flexion_r	hip_adduction_r	hip_rotation_r	knee_angle_r	knee_angle_r_beta	ankle_angle_r	subtalar_angle_r	mtp_angle_r	hip_flexion_l	hip_adduction_l	hip_rotation_l	knee_angle_l	knee_angle_l_beta	ankle_angle_l	subtalar_angle_l	mtp_angle_l	lumbar_extension	lumbar_bending	lumbar_rotation	arm_flex_r	arm_add_r	arm_rot_r	elbow_flex_r	pro_sup_r	arm_flex_l	arm_add_l	arm_rot_l	elbow_flex_l	pro_sup_l
      3.53000000	     -8.68653638	     -5.12056803	      0.95407386	     -0.18737084	      1.03364714	     -0.59463283	      9.12173161	      5.28017669	     -8.82617814	      1.28253690	      0.02238449	     -0.38226305	     -8.89118379	     -7.49999987	     13.27088723	    -16.84890535	    -10.69912740	      6.43360565	      0.11228760	     -0.04575598	     12.31969909	     -7.49999987	     -7.14219515	      9.23874435	      1.75114455	     17.47858618	    -13.74804412	      8.65596050	    116.18811497	     95.92843749	     17.37752843	     -7.27734236	     22.49723370	    115.44895504	     95.66767170
      3.54000000	     -8.81191516	     -5.11126949	      0.90700639	     -0.18857230	      1.03334337	     -0.59441582	      9.57901787	      5.23282844	     -8.93033904	      1.73908902	      0.03035283	      0.10878532	     -8.53338211	     -7.49999987	     13.57349374	    -16.84734715	    -10.45813909	      6.62008973	      0.11554236	     -0.16656142	     11.80063554	     -7.49999987	     -7.22189677	      9.23062705	      1.68744530	     17.95504072	    -13.67421291	      8.61221981	    115.65883466	     99.66499964	     17.68722849	     -7.28396547	     22.17492597	    114.99417914	     99.57106262
      3.55000000	     -8.99770764	     -5.09495212	      0.81236014	     -0.19004850	      1.03289204	     -0.59420704	     10.16710015	      5.18274682	     -8.78894054	      2.28705256	      0.03991660	      0.12992959	     -8.92378564	     -7.49999987	     14.00536877	    -16.86169254	    -10.28947704	      6.92667309	      0.12089325	     -0.18915810	     11.44938881	     -7.49999987	     -7.29254536	      9.22103814	      1.70239859	     18.45835904	    -13.64889295	      8.73500253	    115.47867408	     99.44785479	     18.08103686	     -7.28572321	     22.11423723	    114.94557073	     99.52085334
      3.56000000	     -9.22677922	     -5.05257193	      0.77448311	     -0.19181739	      1.03227936	     -0.59413186	     10.86945285	      5.09173268	     -8.51654566	      2.93142244	      0.05116297	     -0.16572537	     -9.94310119	     -7.49999987	     14.59637806	    -16.84521916	    -10.04790924	      7.37493203	      0.12871685	     -0.12023689	     11.08566637	     -7.49999987	     -7.36004133	      9.18733232	      1.66771025	     19.01950062	    -13.65635177	      8.92897928	    115.40374011	     97.67531759	     18.55212734	     -7.30963038	     22.16235197	    115.05650901	     97.91873050
      3.57000000	     -9.64009181	     -4.94733506	      0.84336672	     -0.19383300	      1.03134694	     -0.59431778	     11.96278828	      4.83650568	     -8.84094741	      3.96457642	      0.06919491	      0.51315561	     -9.74540393	     -7.49999987	     15.48716943	    -16.71100318	     -9.55536776	      7.88255400	      0.13757652	     -0.19499545	     10.49399965	     -7.49999987	     -7.23409923	      9.09869460	      1.53412950	     19.52669172	    -13.66782408	      9.02140741	    115.28278256	     96.56219652	     19.05140707	     -7.30796540	     22.20684629	    115.05467361	     96.86404436
      3.58000000	     -9.95231936	     -4.77149491	      0.90040340	     -0.19605801	      1.03047517	     -0.59437057	     13.03605459	      4.49977425	     -9.08824747	      5.14640483	      0.08982171	      1.15113804	     -9.82039939	     -7.49999987	     16.32788943	    -16.53997207	     -9.23250518	      8.52046826	      0.14871023	     -0.16630274	     10.13738920	     -7.49999987	     -7.30995776	      8.91794154	      1.42755836	     20.12673054	    -13.67630863	      9.14947882	    115.18257004	     95.77234637	     19.68773251	     -7.33033110	     22.25643738	    115.05393810	     96.10135887
      3.59000000	    -10.34725658	     -4.63544273	      0.82166093	     -0.19862167	      1.02933222	     -0.59402808	     14.34169955	      4.25205950	     -9.01472287	      6.55548942	      0.11441487	      1.55424717	    -10.51412541	     -7.49999987	     17.35951008	    -16.52588755	     -9.33581834	      9.39598979	      0.16399096	      0.14250222	     10.29593014	     -7.49999987	     -7.35095810	      8.74170855	      1.36093763	     20.87401868	    -13.60459750	      9.23118318	    114.58140438	     99.08427432	     20.32814076	     -7.40072031	     22.02550753	    114.61164777	     99.39134491
      3.60000000	    -10.75536660	     -4.45129288	      0.69227233	     -0.20146277	      1.02802927	     -0.59364246	     15.78759504	      3.94789660	     -8.83230351	      8.17077715	      0.14260696	      1.97355564	    -11.14877412	     -7.49999987	     18.42873157	    -16.47619968	     -9.43566532	     10.32514792	      0.18020783	      0.35596290	     10.26929270	     -7.49999987	     -7.45440962	      8.49897798	      1.41242799	     21.61816321	    -13.57448014	      9.38426409	    114.34603271	     98.73916363	     21.10041246	     -7.47081899	     22.05200912	    114.48822516	     99.31041553
      3.61000000	    -11.24713056	     -4.22020195	      0.64391360	     -0.20451353	      1.02637532	     -0.59341477	     17.40501171	      3.56841041	     -8.60057557	      9.92660133	      0.17325188	      2.28896999	    -12.03551980	     -7.49999987	     19.72089303	    -16.37034166	     -9.43045953	     11.43250765	      0.19953490	      0.60849842	     10.18436489	     -7.49999987	     -7.50440133	      8.21547252	      1.39650333	     22.37905317	    -13.54221238	      9.57418101	    114.23369763	     96.97329812	     21.91425286	     -7.53055974	     22.14626072	    114.51686938	     97.80240229
      3.62000000	    -11.78454287	     -3.94206260	      0.72391272	     -0.20773895	      1.02434248	     -0.59356044	     19.20263547	      3.02338988	     -8.76681409	     11.96636745	      0.20885251	      3.19037168	    -12.23243688	     -7.49999987	     21.19825102	    -16.17333099	     -9.27647099	     12.69870068	      0.22163414	      0.93986195	     10.13001292	     -7.49999987	     -7.52860508	      7.91312968	      1.23970753	     23.19055843	    -13.48216614	      9.61511275	    113.91016656	     98.23246802	     22.79532312	     -7.56438619	     22.07772578	    114.16971537	     99.37965380
      3.63000000	    -12.33779178	     -3.67370361	      0.82070475	     -0.21110441	      1.02194377	     -0.59376489	     21.03756100	      2.47671649	     -8.87670344	     14.00785522	      0.24448319	      3.77981502	    -12.71959070	     -7.49999987	     22.80587778	    -16.01540063	     -9.21959555	     14.13999337	      0.24678944	      1.33107553	     10.16699148	     -7.49999987	     -7.56478744	      7.62096598	      1.08199015	     24.05335139	    -13.51726054	      9.76672672	    113.72480221	     97.68752230	     23.70805503	     -7.60168880	     22.15595905	    114.07593993	     98.84332174
      3.64000000	    -12.51274534	     -3.41588067	      0.90772407	     -0.21445793	      1.01995650	     -0.59389199	     22.39473535	      1.97837595	     -8.85337829	     15.90991486	      0.27768040	      4.23050843	    -13.29314150	     -7.49999987	     23.93274782	    -15.86304059	     -9.08899379	     15.45854417	      0.26980249	      1.48298613	      9.94679498	     -7.49999987	     -8.16124708	      7.34981785	      0.98937752	     25.08480146	    -13.53965624	      9.90239424	    113.63472818	     97.70076799	     24.86727006	     -7.69224747	     22.19779085	    113.86685325	     98.84131556
      3.65000000	    -13.39807645	     -3.11948094	      0.95051834	     -0.21829249	      1.01635170	     -0.59379861	     24.70289733	      1.40913285	     -8.89390191	     18.12330755	      0.31631139	      5.11287472	    -13.76812659	     -7.49999987	     26.02425009	    -15.72577161	     -9.17514360	     17.11007614	      0.29862716	      1.95893261	      9.77649356	     -7.49999987	     -7.90808030	      7.00858857	      0.89259158	     25.96889340	    -13.55590926	     10.04153082	    113.47665700	     97.69906075	     25.86676875	     -7.79847284	     22.28822382	    113.68025984	     98.84827250
      3.66000000	    -14.09252233	     -2.90480745	      1.11488662	     -0.22214873	      1.01267279	     -0.59387378	     26.70008034	      0.88265654	     -9.06137276	     20.15231452	      0.35172424	      5.91426429	    -14.00486461	     -7.49999987	     27.97489289	    -15.64812417	     -9.06340494	     18.80982272	      0.32829334	      2.43023389	      9.82543912	     -7.49999987	     -7.92235464	      6.76096562	      0.71361379	     26.96722687	    -13.59919187	     10.13850494	    113.35630902	     97.69596377	     26.97934270	     -7.85758413	     22.33306745	    113.47759390	     98.82943544
      3.67000000	    -14.81066145	     -2.72068696	      1.40393946	     -0.22613243	      1.00854388	     -0.59435776	     28.67598270	      0.28131720	     -9.44851842	     22.12150408	      0.38609308	      6.79395182	    -14.12547343	     -7.49999987	     30.05493279	    -15.53548726	     -8.80543067	     20.61415561	      0.35978489	      2.95662280	      9.92478052	     -7.49999987	     -7.93163723	      6.57659366	      0.41268995	     28.03163357	    -13.70712466	     10.27515429	    113.26819785	     97.70353805	     28.14620228	     -7.91838447	     22.40855465	    113.27463368	     98.78345529
      3.68000000	    -15.51238605	     -2.59189504	      1.66025804	     -0.23021072	      1.00414419	     -0.59484823	     30.60377462	     -0.28501149	     -9.90639434	     24.02922030	      0.41938901	      7.74869694	    -14.12454992	     -7.49999987	     32.15084118	    -15.50892776	     -8.62203792	     22.48189748	      0.39238313	      3.52287906	     10.07997596	     -7.49999987	     -8.01468907	      6.46846764	      0.14530496	     29.19334054	    -13.87489331	     10.46529917	    113.19504238	     97.70325020	     29.37607119	     -7.98785090	     22.49086138	    113.07075824	     98.71748372
      3.69000000	    -16.10474719	     -2.52008362	      1.76234472	     -0.23440158	      0.99968528	     -0.59487727	     32.39366690	     -0.69723779	    -10.23709215	     25.83872179	      0.45097077	      8.57558723	    -14.22560935	     -7.49999987	     34.09386429	    -15.67019614	     -8.65859739	     24.34533908	      0.42490632	      4.08564782	     10.26363915	     -7.49999987	     -8.31493439	      6.41119540	      0.06631187	     30.47579938	    -14.03860702	     10.67911843	    113.13298441	     97.68832556	     30.69326441	     -8.05736765	     22.58380595	    112.87746599	     98.65918404
